PathFileType	4	(X/Y/Z)	D:\TRACE\spot_10-12-23\spot_body_motion_1_5-platform.trc
DataRate	CameraRate	NumFrames	NumMarkers	Units	OrigDataRate	OrigDataStartFrame	OrigNumFrames
100.00	100.00	      72	5	mm	100.00	1751	      7000
Frame#	Time	Left_Front			Right_Front			Left_Aft			Right_Aft			Post			
		X1	Y1	Z1	X2	Y2	Z2	X3	Y3	Z3	X4	Y4	Z4	X5	Y5	Z5	

1751	17.500	-829.72601	-17.61660	-647.04199	743.15222	-13.54602	-639.98199	-746.65082	22.13833	490.50421	670.71478	29.30494	576.23553	-46.73111	707.39233	-991.59424	
1752	17.510	-830.01642	-17.81946	-647.01465	742.85852	-13.72188	-639.98694	-746.89868	22.15208	490.26880	670.41425	29.39530	576.19812	-46.94704	707.26923	-991.80591	
1753	17.520	-830.03540	-18.18663	-647.03094	742.43713	-14.01611	-640.17487	-747.09412	22.10382	490.36273	670.22620	29.54240	576.19818	-47.06995	707.13293	-992.02240	
1754	17.530	-830.16534	-18.30739	-647.00421	742.17444	-14.07801	-640.20026	-747.35303	22.18091	490.31781	669.99530	29.60233	576.22882	-47.21566	707.03741	-992.07996	
1755	17.540	-830.32965	-18.36756	-646.98633	742.00720	-14.08370	-640.21008	-747.65002	22.18065	490.28125	669.82007	29.55290	576.22156	-47.35922	706.92755	-992.10944	
1756	17.550	-830.57025	-18.35350	-647.03485	741.86133	-14.15060	-640.23920	-747.71185	22.22775	490.25763	669.70135	29.61619	576.19324	-47.47194	706.89868	-992.12897	
1757	17.560	-830.67902	-18.45490	-647.08850	741.80627	-14.22521	-640.25824	-747.83295	22.25004	490.22763	669.64691	29.75863	576.18561	-47.64393	706.73572	-992.18146	
1758	17.570	-830.72614	-18.56369	-647.17004	741.75226	-14.28600	-640.27411	-747.87854	22.20254	490.16510	669.56061	29.75004	576.14667	-47.84133	706.58356	-992.17529	
1759	17.580	-830.67615	-18.78517	-647.18457	741.73187	-14.36178	-640.29041	-747.87531	22.30669	490.13510	669.58917	29.91154	576.13531	-47.85846	706.47900	-992.14630	
1760	17.590	-830.64630	-18.88337	-647.19354	741.69482	-14.40719	-640.30841	-747.89319	22.35732	490.12067	669.57867	29.96219	576.12140	-47.86891	706.43341	-992.15338	
1761	17.600	-830.70319	-18.96148	-647.15363	741.70386	-14.44060	-640.31207	-747.90289	22.44181	490.12088	669.55841	30.03333	576.12152	-47.89570	706.35083	-992.17981	
1762	17.610	-830.68018	-19.09109	-647.21820	741.66663	-14.49527	-640.32666	-747.90887	22.50192	490.09329	669.54199	30.08569	576.04657	-47.90884	706.25818	-992.22705	
1763	17.620	-830.68848	-19.21574	-647.20776	741.65399	-14.55468	-640.32886	-747.95453	22.52499	490.09784	669.50250	30.16043	576.01624	-47.86993	706.11456	-992.36853	
1764	17.630	-830.68188	-19.22394	-647.21564	741.67664	-14.61459	-640.34082	-747.89502	22.60375	490.05569	669.54755	30.24495	576.02747	-47.74711	705.98230	-992.60889	
1765	17.640	-830.93591	-18.89105	-647.25031	741.62457	-14.69170	-640.35944	-747.86530	22.56565	490.09009	669.53296	30.22954	576.04675	-47.64208	705.85431	-992.73492	
1766	17.650	-830.88202	-18.97772	-647.20630	741.66284	-14.67271	-640.35132	-747.94775	22.60842	490.05573	669.54047	30.27598	576.03857	-47.60561	705.77875	-993.02112	
1767	17.660	-830.86987	-19.00193	-647.22449	741.66248	-14.65954	-640.33929	-747.94714	22.65669	490.11035	669.53571	30.26927	576.02948	-47.66759	705.68982	-993.25726	
1768	17.670	-830.96771	-18.96510	-647.22986	741.66278	-14.66394	-640.34125	-747.88007	22.72966	490.07449	669.59174	30.34519	576.02246	-47.76345	705.66321	-993.38782	
1769	17.680	-830.54181	-19.53732	-647.24518	741.76251	-14.75328	-640.29065	-747.88489	22.71976	490.05466	669.57343	30.32505	576.00244	-47.84344	705.64410	-993.44641	
1770	17.690	-830.78802	-19.12915	-647.22754	741.71619	-14.77988	-640.39795	-747.77441	22.71452	490.05005	669.69281	30.35701	576.02472	-47.72152	705.59766	-993.37592	
1771	17.700	-830.60095	-19.18971	-647.19879	741.89850	-14.86257	-640.41833	-747.50275	22.74019	490.08817	669.99213	30.47640	576.04120	-47.46727	705.48663	-993.21765	
1772	17.710	-830.29236	-19.12577	-647.20386	742.13904	-14.83784	-640.39978	-747.20343	22.88915	490.17035	670.19568	30.53997	576.02234	-47.33376	705.46759	-993.11072	
1773	17.720	-830.02063	-19.19008	-647.20294	742.41077	-14.84836	-640.36182	-746.88428	22.98458	490.09247	670.38861	30.56381	576.00293	-47.02463	705.40381	-993.06012	
1774	17.730	-829.73615	-19.34411	-647.18707	742.77985	-14.92706	-640.31641	-746.80603	22.95558	490.04660	670.55103	30.56705	575.93414	-46.79672	705.35022	-993.05188	
1775	17.740	-829.60809	-19.36706	-647.19470	743.05072	-15.12117	-640.39990	-746.55634	22.88012	490.01300	670.72339	30.54140	575.87073	-46.54350	705.16003	-993.08942	
1776	17.750	-829.41742	-19.46911	-647.15753	743.43243	-15.25906	-640.33441	-746.26349	22.80930	489.97635	670.87994	30.52559	575.82928	-46.37442	705.06842	-993.08484	
1777	17.760	-829.10345	-19.46956	-647.23590	743.83252	-15.34742	-640.26111	-745.96124	22.86104	489.96774	671.09174	30.58675	575.81207	-45.93478	704.99164	-993.20264	
1778	17.770	-828.77356	-19.36889	-647.32202	744.02094	-15.39257	-640.32617	-745.67096	23.01808	490.03397	671.42517	30.63548	575.82867	-45.52763	704.97723	-993.32953	
1779	17.780	-828.28979	-19.58922	-647.38159	744.38983	-15.38611	-640.26276	-745.31244	23.03476	489.97256	671.90027	30.67460	575.82452	-45.18362	705.00659	-993.51074	
1780	17.790	-827.68420	-19.79993	-647.37042	744.68835	-15.38015	-640.29132	-744.75433	22.85815	490.09705	672.39856	30.72199	575.88171	-44.86953	705.06085	-993.71082	
1781	17.800	-827.50537	-19.69490	-647.29205	744.99817	-15.24476	-640.25964	-744.49017	22.84426	490.06070	672.88715	30.67578	575.94177	-44.61871	705.02728	-993.83282	
1782	17.810	-827.15607	-19.75138	-647.20721	745.42859	-15.21010	-640.27179	-744.25995	22.89227	490.00119	673.15405	30.66922	575.91089	-44.28316	704.99786	-993.92181	
1783	17.820	-826.90210	-19.57691	-647.22369	745.81451	-15.15555	-640.43658	-743.85248	23.01549	489.94318	673.46350	30.69920	575.92676	-43.86832	704.97443	-993.94556	
1784	17.830	-826.40961	-19.45268	-647.21942	746.09882	-15.16511	-640.52448	-743.43677	23.01574	489.99042	673.87372	30.76943	575.92352	-43.42689	705.01105	-993.83655	
1785	17.840	-826.04590	-19.50698	-647.12549	746.48260	-15.22577	-640.48956	-742.97583	23.10930	490.00961	674.53113	30.68088	575.83466	-42.84730	705.04663	-993.72418	
1786	17.850	-825.61285	-19.45668	-647.28632	746.85425	-15.19555	-640.56262	-742.50989	23.03343	489.91757	675.03107	30.66416	575.86493	-42.26295	705.03650	-993.70801	
1787	17.860	-825.06317	-19.49980	-647.39832	747.46057	-15.15313	-640.57202	-742.09552	22.87776	489.84247	675.44324	30.64343	575.93140	-41.77465	705.14337	-993.76099	
1788	17.870	-824.34332	-19.80007	-647.43378	748.05127	-15.01591	-640.61725	-741.57220	22.88826	489.93521	675.76294	30.59516	575.96790	-41.50668	705.21069	-993.58624	
1789	17.880	-823.76526	-19.80328	-647.30292	748.62183	-14.95573	-640.46637	-741.11603	22.82963	489.93173	676.15295	30.49782	575.94775	-41.28086	705.27252	-993.47003	
1790	17.890	-823.62177	-19.31005	-647.17230	748.89227	-14.80119	-640.40314	-740.80096	22.88227	489.83917	676.61816	30.45298	575.95508	-40.85504	705.39471	-993.20026	
1791	17.900	-823.21667	-19.21385	-647.11993	749.40283	-14.78936	-640.26172	-740.15485	22.72632	490.15833	677.20135	30.39933	575.98480	-40.25853	705.54010	-992.81812	
1792	17.910	-822.60577	-19.15733	-647.15289	749.92786	-14.81792	-640.23608	-739.72565	22.69827	489.90344	678.21613	30.18257	575.39227	-39.67776	705.66351	-992.72955	
1793	17.920	-821.99756	-19.23459	-647.19366	750.68158	-14.81583	-640.27167	-739.08502	22.69441	489.91620	678.66632	30.16823	575.49426	-38.96564	705.84784	-992.77740	
1794	17.930	-821.53290	-19.07631	-647.20483	751.37561	-14.68730	-640.16663	-738.63947	22.63540	489.90750	679.04303	30.14141	575.67188	-38.40746	706.01636	-992.76019	
1795	17.940	-820.79907	-19.16527	-647.31073	751.70251	-14.61761	-640.07526	-738.02826	22.52436	490.11612	679.62360	30.15941	575.76581	-38.00454	706.19067	-992.71075	
1796	17.950	-820.11914	-19.31960	-647.18274	751.97363	-14.46807	-640.22028	-737.62683	22.62026	490.12427	680.23065	30.02427	575.76593	-37.56806	706.25946	-992.60229	
1797	17.960	-819.62543	-19.29372	-647.02423	752.65692	-14.38132	-640.33838	-737.09442	22.59214	490.09085	680.58954	29.92891	575.84045	-37.09325	706.41644	-992.42609	
1798	17.970	-819.18555	-18.89615	-647.05524	753.01385	-14.09708	-640.49695	-736.36328	22.46530	490.09991	681.00562	29.91608	575.93866	-36.67830	706.59607	-992.36737	
1799	17.980	-818.36566	-18.78889	-647.19458	753.92371	-13.91796	-640.37854	-735.63916	22.37910	490.08902	681.84930	29.86865	576.04608	-35.73531	706.68298	-992.38855	
1800	17.990	-817.88605	-18.67109	-647.30042	754.59833	-13.86042	-640.24377	-735.04651	22.17341	490.11093	682.53198	29.89703	576.09412	-35.08675	706.93311	-992.44684	
1801	18.000	-817.20453	-18.56588	-647.26489	755.20044	-13.86634	-640.19794	-734.46820	22.09014	490.23621	683.13428	29.81988	576.10944	-34.44511	707.12122	-992.39044	
1802	18.010	-816.50061	-18.40337	-647.14441	755.73987	-13.79057	-640.08527	-733.87604	22.12382	490.12695	683.73029	29.66480	576.12408	-33.87843	707.26471	-992.34088	
1803	18.020	-815.97217	-18.07806	-647.18433	756.20306	-13.53680	-640.01636	-733.15887	22.03833	490.37375	684.27423	29.59534	576.26624	-33.25098	707.40839	-992.05127	
1804	18.030	-815.43475	-17.84882	-647.11444	756.98846	-13.32735	-640.05304	-732.63458	21.93074	490.26514	684.96954	29.54804	576.31860	-32.67654	707.69745	-991.78949	
1805	18.040	-814.67798	-17.90478	-647.19812	757.90625	-13.20780	-639.99615	-731.78015	21.71324	490.40091	685.55756	29.44430	576.29169	-31.99103	707.88300	-991.51160	
1806	18.050	-813.96887	-17.72383	-647.11096	758.37415	-13.09282	-640.01459	-731.21490	21.57200	490.60013	686.19373	29.27098	576.30450	-31.35958	708.04602	-991.19958	
1807	18.060	-813.21552	-17.65118	-647.11334	759.06500	-12.84077	-640.02490	-730.54535	21.53065	490.69070	686.99689	29.20477	576.36328	-30.33011	708.25043	-990.72668	
1808	18.070	-812.52698	-17.46633	-646.96271	759.97809	-12.90973	-640.03333	-729.79736	21.43764	490.69363	687.60974	29.06087	576.41284	-29.84115	708.46948	-990.58899	
1809	18.080	-811.79688	-17.39841	-646.80176	760.57123	-12.88811	-639.98370	-728.98065	21.31466	490.60065	688.34753	28.85274	576.37262	-29.13876	708.80231	-990.24292	
1810	18.090	-811.30927	-17.24632	-646.70532	761.15759	-12.67890	-639.78888	-728.27362	21.10267	490.45016	689.01654	28.68151	576.36957	-28.39961	709.00916	-990.13861	
1811	18.100	-810.52515	-16.97287	-646.64648	762.04950	-12.50168	-639.70331	-727.77997	21.14543	490.42966	689.71777	28.64275	576.35883	-27.53505	709.20654	-989.65509	
1812	18.110	-809.31995	-16.99261	-647.01434	762.84070	-12.12030	-639.78674	-726.80908	20.90822	490.83020	690.57019	28.57670	576.54193	-27.01625	709.53772	-989.42749	
1813	18.120	-808.75513	-16.81141	-646.82965	763.51392	-12.07199	-639.81952	-725.99152	20.91642	490.83737	691.24951	28.44952	576.57056	-26.33354	709.90143	-989.55640	
1814	18.130	-807.95325	-16.59263	-646.60168	764.24518	-11.88662	-639.86609	-725.41730	20.81288	490.80148	692.11694	28.20216	576.74341	-25.56156	710.07349	-989.58527	
1815	18.140	-807.37524	-16.26635	-646.68152	764.82483	-11.58000	-639.84412	-724.55573	20.57156	490.88321	692.71265	28.06422	576.81506	-24.61447	710.26788	-989.53668	
1816	18.150	-806.68805	-15.89451	-646.63690	765.58752	-11.38168	-639.74597	-723.78949	20.41306	490.94958	693.65259	27.82360	576.81934	-23.67705	710.70984	-989.15033	
1817	18.160	-805.80200	-15.89390	-646.56366	766.63727	-11.14777	-639.65271	-723.11273	20.47801	490.86462	694.55505	27.61457	576.81018	-22.82778	711.13800	-988.91345	
1818	18.170	-805.04974	-15.57024	-646.26764	767.52899	-10.74797	-639.55176	-722.02582	20.28318	491.12750	695.19037	27.44669	576.79553	-22.31978	711.46246	-988.75378	
1819	18.180	-804.21716	-15.25593	-646.42047	768.27118	-10.72047	-639.38806	-721.38818	20.22219	491.11032	695.82172	27.32036	576.96851	-21.47376	711.70581	-988.48523	
1820	18.190	-803.32550	-15.15669	-646.39026	769.08813	-10.48357	-639.52954	-720.67566	19.99113	491.05322	696.95093	27.21935	577.16034	-20.37538	712.02374	-987.90100	
1821	18.200	-802.62860	-14.88277	-646.39746	769.99084	-10.14169	-639.50269	-719.59058	19.63926	491.08847	697.64093	27.06262	577.15973	-19.85014	712.41858	-987.49005	
1822	18.210	-801.69507	-14.60689	-646.34430	770.65405	-10.02330	-639.44586	-718.79907	19.48097	491.35690	698.44885	26.82896	577.08246	-19.27967	712.83832	-987.16644	
